<?xml version="1.0" encoding="utf-8"?>
<!DOCTYPE svg PUBLIC "-//W3C//DTD SVG 1.1//EN" "http://www.w3.org/Graphics/SVG/1.1/DTD/svg11.dtd">
<svg version="1.1" id="Layer_1" xmlns="http://www.w3.org/2000/svg" xmlns:xlink="http://www.w3.org/1999/xlink" x="0px" y="0px"
	 width="341.89px" height="95.28px" viewBox="0 0 841.89 595.28" enable-background="new 0 0 841.89 595.28" xml:space="preserve">
<g>
	<path fill="none" d="M457.957,282.32c13.531-16.333,24.453-34.147,30.53-54.621c0.41-1.385,1.312-5.449-0.043-6.522
		c-2.071-1.639-5.805,4.698-6.671,5.949c-0.94,1.358-1.838,2.747-2.797,4.091c-1.969,2.765-3.835,5.649-5.452,8.636
		c-0.636,1.172-1.26,2.352-1.875,3.536c-0.626,1.202-1.241,2.408-1.848,3.621c-0.611,1.225-1.214,2.454-1.803,3.689
		c-0.594,1.243-1.176,2.491-1.743,3.747c-0.568,1.254-1.122,2.514-1.659,3.781c-0.531,1.25-1.046,2.506-1.542,3.771
		c-0.48,1.224-0.944,2.455-1.387,3.693c-0.419,1.173-0.818,2.353-1.196,3.539c-0.348,1.1-0.676,2.206-0.979,3.319
		c-0.276,1.016-0.531,2.038-0.763,3.064c-0.211,0.939-0.401,1.882-0.575,2.829c-0.162,0.885-0.308,1.772-0.447,2.661
		c-0.018,0.109-0.156,1.247-0.194,1.249C457.664,282.342,457.891,282.398,457.957,282.32z"/>
	<path fill="none" d="M204.413,295.098c1.315-1.429,2.63-2.901,3.698-4.528c0.425-0.647,0.959-2.15,0.43-2.858
		c-0.333-0.445-0.906-0.543-1.495-0.494c-0.542,0.046-1.097,0.216-1.485,0.354c-2.817,0.997-5.233,3.478-6.339,6.23
		c-0.558,1.39-1.042,3.319-0.9,4.831c0.153,1.623,1.475,0.709,2.266,0.145C202.067,297.722,203.194,296.421,204.413,295.098z"/>
	<path fill="none" d="M571.107,261.444c-4.381,3.279-5.081,7.787-5.587,13.376C571.922,269.474,573.245,266.239,571.107,261.444z"/>
	<path fill="none" d="M368.055,364.586c-4.971,4.36-6.886,10.653-4.805,17.423c1.984,6.448,6.762,7.824,11.649,3.218
		c11.851-11.167,18.087-25.329,21.68-40.841c-0.435-0.425-0.87-0.852-1.304-1.277C386.161,350.221,376.731,356.974,368.055,364.586z
		"/>
	<path fill="none" d="M800.617,260.896c-5.401,3.726-5.704,8.531-5.893,13.39C798.201,270.908,802.373,267.861,800.617,260.896z"/>
	<path fill="none" d="M763.214,328.976c-4.712,3.397-5.79,8.122-3.736,12.304c2.014,4.097,7.123,6.042,12.565,4.475
		c1.977-0.57,4.08-1.466,5.575-2.822c6.882-6.239,9.918-14.39,11.643-24.232c-5.664,1.723-10.368,2.868-14.846,4.604
		C770.522,324.812,766.572,326.553,763.214,328.976z"/>
	<path fill="none" d="M692.673,288.38c-0.619-1.923-2.673-4.695-5.054-4.411c-2.244,0.268-3.918,2.075-2.538,5.047
		c0.377,0.818-0.338,2.176-0.633,3.263c-0.399,1.458-1.53,3.07-1.199,4.312c1.057,3.976,2.643,7.813,4.024,11.705
		c0.646-0.102,1.291-0.204,1.938-0.307c0.643-0.104,1.229-2.123,1.468-2.646c1.284-2.82,2.278-5.673,2.561-8.777
		C693.488,293.826,693.524,291.028,692.673,288.38z"/>
	<path fill="none" d="M534.654,329.624c-2.269,1.997-4.435,4.483-4.729,7.62c-0.282,2.985,1.706,5.991,4.338,7.371
		c3.412,1.788,7.641,2.031,11.179,0.469c3.848-1.7,6.766-5.048,8.883-8.595c1.316-2.203,2.562-4.645,3.408-7.073
		c1.191-3.423,2.201-7.104,2.775-10.685c-5.52,1.657-10.141,3.034-14.752,4.439C541.68,324.412,537.837,326.823,534.654,329.624z"/>
	<path fill="none" d="M678.604,298.42c-0.612,5.068-1.352,8.786-1.379,12.512c-0.012,1.516,0.454,3.44,1.823,4.3
		c1.59,0.999,3.543-0.165,4.863-1.086c0.38-0.265,2.485-1.646,2.157-2.24C683.676,307.579,681.476,303.613,678.604,298.42z"/>
	<path d="M819.469,297.929c-2.247,1.611-4.044,3.761-6.093,5.604c-2.196,1.975-4.581,3.743-7.114,5.264
		c-2.746,1.646-6.265,3.77-9.583,3.621c-0.307-1.473-0.278-3.088-0.388-4.587c-0.408-5.515-0.724-11.054-1.673-16.51
		c-0.314-1.805-0.491-3.718-0.339-5.547c0.253-3.014,1.457-5.896,3.286-8.287c2.05-2.68,4.27-5.003,5.583-8.178
		c1.464-3.534,3.056-8.595-1.017-11.042c-1.616-0.971-5.21-0.777-6.587,0.437c-2.593,2.284-4.983,5.418-6.043,8.662
		c-1.287,3.938-0.961,8.376-1.635,12.55c-0.29,1.791-0.912,3.883-2.121,5.118c-2.897,2.961-5.8,5.918-8.711,8.867
		c-5.238,5.304-10.498,10.59-15.764,15.869c-2.608,2.614-5.218,5.227-7.827,7.839c-2.407,2.411-4.632,5.105-7.138,7.404
		c-0.689,0.633-2.087,1.314-2.698,0.281c-0.646-1.092,0.266-2.888,0.448-4.003c0.251-1.543,0.566-3.086,1.193-4.526
		c3.454-7.939,8.438-15.325,12.552-22.934c0.413-0.765,1.604-3.709,0.384-4.309c-1.175-0.577-3.513-0.299-4.521,0.501
		c-2.191,1.743-4.207,4.019-5.53,6.482c-0.875,1.628-1.883,3.208-2.996,4.684c-1.966,2.603-4.267,4.926-6.765,7.018
		c-1.236,1.036-2.509,2.032-3.824,2.966c-2.043,1.447-5.817,4.818-8.634,3.649c-1.718-0.714-0.367-2.921,0.048-4.079
		c2.155-5.999,4.673-11.893,7.009-17.827c-2.558-1.802-4.544-1.336-6.867,1.093c-5.628,5.887-11.128,12.047-17.524,17.008
		c-5.627,4.367-11.402,3.609-16.307-0.236c0.657-1.32,1.441-2.615,1.981-4.01c2.816-7.224,4.533-14.568,0.818-21.977
		c-2.833-5.644-8.513-6.167-12.521-1.583c-6.539,7.482-13.07,14.985-19.958,22.135c-0.839,0.872-1.709,1.711-2.6,2.528
		c-0.862,0.792-1.728,1.581-2.603,2.359c-2.238,1.99-4.601,3.869-7.107,5.511c-1.318,0.862-2.884,1.965-4.477,2.211
		c-2.451,0.38-0.923-3.189-0.678-4.303c0.465-2.103,1.146-4.139,1.803-6.186c0.888-2.764,2.024-5.454,3.081-8.154
		c0.645-1.651,5.569-14.133,1.608-13.958c-2.52,0.112-4.287,1.735-6.007,3.385c-1.211,1.161-2.406,2.336-3.596,3.519
		c-4.133,4.111-8.188,8.304-12.49,12.239c-1.252,1.146-2.508,2.284-3.776,3.409c-4.444,3.945-9.039,8.042-14.115,11.164
		c-0.801,0.492-1.65,0.896-2.525,1.235c-1.567,0.606-3.218,0.997-4.878,1.246c-1.593,0.238-3.342,0.501-4.915,0.024
		c-1.602-0.486-3.299-1.682-4.156-3.146c-3.748-6.391,0.827-21.413,7.298-24.854c1.771-0.941,4.69-0.627,4.418,1.978
		c-0.296,2.844-2.808,5.126-4.324,7.352c0.074,0.125,0.664,1.351,0.783,1.342c1.412-0.112,4.326-2.141,5.103-3.3
		c2.437-3.64,3.172-5.972,2.278-9.292c-0.766-2.846-3.671-4.486-6.716-4.77c-3.177-0.296-6.477,2.08-8.45,4.389
		c-0.491,0.574-0.891,1.226-1.38,1.804c-2.418,2.876-4.54,6.099-7.346,8.528c-5.536,4.791-11.313,9.389-18.765,11.025
		c-0.818-8.186-1.322-15.893-2.435-23.516c-0.191-1.3-0.266-2.668-0.14-3.977c0.204-2.129,0.989-4.204,2.168-5.981
		c1.371-2.07,3.197-3.817,4.544-5.907c0.989-1.535,1.794-3.177,2.564-4.83c0.726-1.557,1.551-3.204,1.484-4.967
		c-0.055-1.469-0.817-2.969-1.705-4.113c-1.767-2.279-5.311-1.95-7.66-0.787c-4.217,2.087-6.653,6.186-6.564,10.732
		c0.192,10.116-3.985,17.262-11.592,23.929c-2.563,2.248-5.052,4.582-7.491,6.964c-4.391,4.29-8.611,8.751-12.832,13.207
		c-0.765,0.809-1.529,1.616-2.295,2.426c-2.314,2.442-4.732,4.791-6.942,7.329c-0.644,0.74-1.681,2.449-2.778,2.472
		c-1.816,0.035-1.147-3.791-0.974-4.679c1.999-10.258,7.668-18.661,13.543-26.991c0.789-1.119,1.546-3.672,1.009-4.313
		c-2.241-0.8-4.106-0.298-5.388,0.624c-2.007,1.441-3.698,3.624-4.897,5.83c-4.121,7.575-10.305,13.024-17.464,17.476
		c-1.27,0.79-1.676,1.189-3.963,1.872c-0.542,0.163-1.85,0.448-2.32-0.132c-0.821-1.01,0.28-3.277,0.635-4.194
		c1.066-2.765,1.992-4.964,3.095-7.728c1.377-3.45,3.256-6.706,4.907-10.026c-4.036-2.188-4.662-2.118-7.229,0.688
		c-5.116,5.585-10.076,11.321-15.375,16.725c-3.593,3.657-7.41,7.192-11.571,10.161c-4.382,3.128-8.429,2.534-11.513-0.725
		c-5.847-6.179-6.466-25.107-1.245-31.823c5.483-7.05,11.099-14.042,15.999-21.494c8.005-12.177,14.925-24.973,18.703-39.204
		c1.133-4.25,0.878-8.465-3.295-10.844c-4.007-2.286-7.625,0.019-9.985,3.06c-4.336,5.591-8.68,11.315-11.997,17.531
		c-8.264,15.486-12.909,32.276-16.685,49.354c-0.7,3.168-2.551,6.49-4.812,8.831c-6.413,6.638-13.197,12.935-20.056,19.122
		c-6.2,5.59-12.691,10.857-19.952,17.032c1.262-6.965,2.279-12.612,3.312-18.26c1.636-8.929,3.376-17.841,4.814-26.803
		c0.237-1.476-0.47-3.708-2.068-4.058c-1.409-0.309-2.928,0.575-4.025,1.363c-1.89,1.355-3.017,3.648-4.414,5.457
		c-1.396,1.805-3.056,3.32-5.226,4.118c-1.16,0.427-3.251,1.028-4.243-0.08c-0.986-1.102-0.14-2.804,0.207-3.996
		c0.313-1.076,0.945-2.91,0.622-4.005c-0.556-1.887-2.948,0.219-3.795,0.815c-2.265,1.595-4.261,3.667-6.21,5.625
		c-3.28,3.292-6.555,6.578-9.667,10.03c-2.057,2.284-4.091,4.589-6.114,6.904c-3.563,4.078-7.087,8.19-10.638,12.279
		c-3.351,3.858-6.595,7.993-10.345,11.473c-2.424,2.248-5.92,5.159-9.444,5.103c-2.861-0.047-4.319-3.383-4.38-5.915
		c-0.087-3.596,0.264-7.294,1.059-10.8c4.998-22.086,12.873-43.24,21.2-64.231c0.428-1.079,1.626-2.466,2.622-2.607
		c8.815-1.239,17.648-2.443,26.517-3.143c1.766-0.14,2.877,0.295,4.549,0.716c0.58,0.146,1.739,0.986,2.013,1.568
		c0.498,1.059-0.666,1.617-1.446,1.979c-0.422,0.195-0.548,0.427-0.931,0.689c-0.229,0.156-1.904,1.557-2.063,1.487
		c1.148,0.506,2.525,1.681,3.395,1.38c1.854-0.64,4.331-1.724,4.877-3.233c0.484-1.337-0.855-4-2.188-5.165
		c-1.726-1.508-4.198-2.817-6.427-2.958c-4.638-0.29-9.348,0.03-13.986,0.5c-4.541,0.462-9.03,1.422-13.99,2.236
		c0.522-1.9,1.095-3.054,1.093-4.207c-0.002-1.538-0.45-3.076-0.707-4.614c-1.835,0.866-4.112,1.324-5.387,2.707
		c-1.35,1.464-1.525,3.945-2.64,5.715c-0.791,1.256-2.186,2.767-3.488,2.96c-6.119,0.906-12.298,1.906-18.455,1.902
		c-7.457-0.004-10.757-3.418-12.208-10.731c-0.172-0.868-1.017-1.604-1.55-2.401c-0.622,0.857-1.658,1.653-1.796,2.583
		c-0.7,4.696,2.955,10.24,8.123,12.485c6.409,2.782,13.043,2.15,19.679,1.103c1.968-0.312,3.919-0.732,6.459-1.212
		c-0.113,0.021-0.401,0.831-0.462,0.957c-0.155,0.319-0.309,0.638-0.463,0.956c-1.284,2.65-2.578,5.296-3.916,7.92
		c-1.327,2.603-2.698,5.184-4.133,7.729c-1.42,2.52-2.903,5.005-4.454,7.446c-1.538,2.423-3.141,4.804-4.805,7.143
		c-1.657,2.329-3.374,4.616-5.146,6.86c-1.772,2.246-3.6,4.449-5.479,6.606c-1.889,2.169-3.832,4.29-5.825,6.362
		c-5.204,5.408-10.631,10.841-16.427,15.613c-0.567,0.469-1.967,1.826-2.75,1.112c-0.787-0.717-0.006-3.104,0.181-3.909
		c0.961-4.133,2.43-8.247,4.215-12.094c3.164-6.817,7.565-13.052,11.33-19.546c-5.243,0.924-9.07,2.691-12.113,7.215
		c-4,5.943-7.218,11.659-13.709,15.229c-1.976,1.089-4.419,2.52-6.747,2.371c-3.601-0.229-0.334-6.261,0.348-7.83
		c2.208-5.085,4.399-10.147,6.338-15.344c-1.21,0.423-2.421,0.849-3.604,1.345c-5.554,2.328-9.41,6.542-13.298,10.986
		c-4.547,5.199-9.395,10.111-14.761,14.476c-2.454,1.995-8.684,7.516-10.734,2.286c-1.925-4.913-0.183-11.611,2.917-15.641
		c3.585-4.662,9.619-7.471,11.701-13.257c0.736-2.045,0.925-4.732-0.666-6.449c-1.493-1.611-3.744-1.326-5.467-0.261
		c-5.171,3.196-6.7,10.267-10.101,14.954c-1.886,2.602-7.034,7.089-10.46,4.224c-2.895-2.42,0.925-7.586,2.877-9.306
		c3.273-2.883,5.169-0.29,6.569,2.834c0.452-0.597,0.604-0.943,0.52-1.69c-0.071-0.636-0.689-1.846-0.922-2.391
		c-0.777-1.817-2.857-3.43-5.068-3.505c-2.648-0.09-5.131,2.243-6.894,3.934c-5.528,5.3-9.464,12.552-15.901,16.865
		c-3.207,2.149-9.991,3.725-11.598-1.321c-1.595-5.006,5.604-10.04,8.56-12.933c2.367-2.315,8.791-8.58,3.96-11.665
		c-4.024-2.57-9.856,0.149-12.78,3.178c-3.352,3.473-4.859,8.431-5.87,13.037c-1.001,4.562-1.67,10.086,0.987,14.24
		c2.934,4.591,8.588,4.463,13.057,2.372c6.12-2.866,10.691-8.352,15.049-13.333c0.757,1.333,1.513,2.763,2.618,3.848
		c2.983,2.926,8.057,0.739,11.396-0.428c-1.417,4.511-3.125,9.452-2.311,14.244c0.58,3.414,2.79,6.242,6.391,6.604
		c4.146,0.418,8.185-2.04,11.307-4.494c3.676-2.891,6.772-6.431,10.001-9.79c3.065-3.191,6.311-6.172,9.633-9.09
		c-0.581,1.999-1.07,4.019-1.05,6.113c0.04,4.331,2.366,8.13,7.14,7.375c4.395-0.696,8.462-3.549,12.31-5.636
		c-0.566,3.048-1.17,6.109-1.407,9.204c-0.154,2.025-0.3,4.46,0.682,6.323c0.692,1.312,2.34,2.183,3.776,2.033
		c3.485-0.364,6.986-3.567,9.474-5.787c3.566-3.182,6.768-6.778,9.988-10.298c3.322-3.632,6.625-7.286,10.111-10.761
		c3.338-3.325,6.732-6.61,9.575-10.385c2.436-3.233,4.464-6.748,6.783-10.062c-3.414,12.184-6.964,23.743-9.792,35.471
		c-1.22,5.06-1.461,10.507-1.201,15.729c0.274,5.494,4.898,9.067,10.146,7.582c4.183-1.188,8.535-3.463,11.623-6.476
		c7.142-6.965,13.571-14.663,20.271-22.078c6.151-6.809,12.278-13.64,19.041-21.15c1.427,4.863,4.406,6.271,8.008,5.397
		c3.113-0.756,6.017-2.37,9.39-3.763c-2.499,13.443-4.809,26.705-7.563,39.873c-0.482,2.305-2.438,4.741-4.391,6.226
		c-8.91,6.76-18.423,12.766-27.007,19.897c-6.312,5.246-9.353,12.638-7.87,21.193c1.689,9.745,10.059,13.851,18.242,8.343
		c4.399-2.96,8.311-7.089,11.428-11.422c7.566-10.514,10.305-23.116,14.183-35.222c0.959-2.993,2.737-6.11,5.013-8.232
		c11.402-10.621,23.092-20.934,34.687-31.349c1.562-1.4,3.152-2.772,5.436-4.772c-0.205,2.885-0.408,4.537-0.423,6.192
		c-0.054,5.87,0.889,11.459,4.66,16.26c5.757,7.318,15.489,7.926,23.305,1.247c5.45-4.662,6.983-6.166,12.338-10.939
		c0.964-1.087,2.825-2.645,2.904-1.943c0.313,2.849-0.22,7.104,1.359,8.169c2.026,1.367,5.94,0.715,8.757-0.074
		c3.151-0.886,5.989-2.896,8.914-4.389c-0.615,4.432-1.541,8.587-1.609,12.757c-0.025,1.581,1.183,3.367,2.398,4.276
		c1.457,1.088,3.304,0.811,4.926,0.289c1.797-0.582,2.768-1.598,4.07-2.898c6.329-6.308,12.662-12.609,18.955-18.954
		c6.554-6.611,13.064-13.265,20.486-20.806c0.683,7.725,1.198,14.286,1.865,20.833c0.447,4.381-1.231,6.281-5.704,7.413
		c-9.241,2.336-18.478,5.185-25.443,12.326c-3.488,3.581-5.064,7.903-3.405,12.893c1.729,5.195,5.622,7.733,10.902,8.241
		c7.377,0.709,14.334-0.907,18.638-7.118c3.807-5.492,7.076-11.684,9.021-18.044c0.9-2.948,2-6.031,4.501-8.019
		c2.905-2.307,6.891-2.772,10.079-4.597c2.969-1.7,5.746-3.713,8.717-5.407c-0.299,1.651-0.616,3.104-0.815,4.571
		c-1.208,8.848,4.362,15.24,13.241,14.952c2.531-0.081,5.153-0.562,7.543-1.401c11.256-3.941,19.455-12.034,27.246-20.596
		c2.911-3.195,5.66-6.538,8.485-9.809c-0.046,0.052,0.156,0.961,0.157,1.133c0,0.457-0.078,0.911-0.182,1.354
		c-0.215,0.92-0.573,1.795-0.85,2.697c-1.614,5.275-3.436,10.51-4.453,15.945c-0.269,1.436-0.32,3.298,0.087,4.711
		c1.739,6.043,10.226,0.646,13.153-1.197c3.381-2.127,6.535-4.583,9.709-7.004c1.339-1.022,2.541-2.072,3.602-3.391
		c1.059-1.317,2.145-2.662,3.105-4.053c0.793,0.614,1.127,0.937,1.122,1.97c-0.006,1.136,0.015,2.271-0.013,3.408
		c-0.107,4.359,1.033,8.293,5.03,10.483c3.161,1.732,6.396,0.465,9.235-1.284c1.504-0.925,2.577-2.264,3.965-3.315
		c1.264-0.957,2.728-0.602,4.059,0.068c7.035,3.547,13.849,2.32,20.201-1.906c2.565-1.715,4.889-3.793,7.814-6.088
		c-0.629,0.494-0.4,3.855-0.374,4.551c0.063,1.648,0.321,3.467,1.361,4.81c1.961,2.53,6.165,1.5,8.753,0.732
		c3.286-0.972,6.252-3.034,9.563-4.731c-0.752,3.513-1.604,6.577-2.021,9.7c-0.421,3.141-0.886,6.7,2.717,8.39
		c3.296,1.546,5.715-0.566,7.936-2.838c10.362-10.618,20.731-21.228,31.16-31.782c2.636-2.663,5.503-5.097,8.931-8.252
		c0.665,6.615,1.363,12.423,1.813,18.252c0.601,7.838,0.428,7.817-6.913,9.938c-8.903,2.573-17.76,5.388-24.398,12.391
		c-3.495,3.69-4.636,8.131-2.907,13.021c1.697,4.815,5.486,7.118,10.325,7.702c9.956,1.203,17.737-2.719,22.406-11.352
		c3.054-5.646,4.577-12.103,7.022-18.1c0.646-1.583,1.937-3.66,3.337-4.051c8.475-2.357,15.009-7.48,21.396-13.238
		c4.191-3.781,9.299-6.546,13.998-9.766c0-1.518,0-3.032,0-4.548C829.241,291.521,824.214,294.53,819.469,297.929z M800.617,260.896
		c1.756,6.965-2.416,10.012-5.893,13.39C794.913,269.427,795.216,264.622,800.617,260.896z M571.107,261.444
		c2.138,4.795,0.814,8.029-5.587,13.376C566.026,269.231,566.727,264.724,571.107,261.444z M457.707,281.101
		c0.14-0.889,0.285-1.776,0.447-2.661c0.174-0.946,0.364-1.89,0.575-2.829c0.231-1.027,0.486-2.048,0.763-3.064
		c0.304-1.113,0.632-2.219,0.979-3.319c0.378-1.186,0.777-2.366,1.196-3.539c0.442-1.239,0.906-2.469,1.387-3.693
		c0.496-1.264,1.011-2.521,1.542-3.771c0.537-1.267,1.091-2.527,1.659-3.781c0.567-1.255,1.149-2.503,1.743-3.747
		c0.589-1.235,1.191-2.464,1.803-3.689c0.606-1.212,1.222-2.419,1.848-3.621c0.615-1.184,1.239-2.363,1.875-3.536
		c1.617-2.987,3.483-5.871,5.452-8.636c0.959-1.345,1.856-2.733,2.797-4.091c0.866-1.25,4.6-7.587,6.671-5.949
		c1.355,1.073,0.453,5.137,0.043,6.522c-6.077,20.474-16.999,38.288-30.53,54.621c-0.066,0.078-0.293,0.022-0.444,0.029
		C457.551,282.348,457.689,281.21,457.707,281.101z M198.322,298.632c-0.142-1.512,0.342-3.44,0.9-4.831
		c1.106-2.752,3.522-5.233,6.339-6.23c0.389-0.138,0.943-0.308,1.485-0.354c0.588-0.05,1.162,0.048,1.495,0.494
		c0.529,0.708-0.005,2.211-0.43,2.858c-1.068,1.627-2.383,3.099-3.698,4.528c-1.219,1.323-2.346,2.624-3.826,3.678
		C199.796,299.341,198.475,300.255,198.322,298.632z M374.898,385.227c-4.887,4.606-9.665,3.23-11.649-3.218
		c-2.081-6.77-0.166-13.062,4.805-17.423c8.677-7.612,18.106-14.365,27.22-21.478c0.435,0.426,0.87,0.853,1.304,1.277
		C392.986,359.897,386.75,374.06,374.898,385.227z M557.733,329.416c-0.846,2.429-2.092,4.87-3.408,7.073
		c-2.117,3.547-5.035,6.895-8.883,8.595c-3.538,1.562-7.767,1.319-11.179-0.469c-2.632-1.38-4.62-4.386-4.338-7.371
		c0.294-3.137,2.46-5.623,4.729-7.62c3.183-2.801,7.025-5.212,11.103-6.453c4.611-1.405,9.232-2.782,14.752-4.439
		C559.935,322.312,558.925,325.993,557.733,329.416z M683.912,314.146c-1.32,0.921-3.273,2.085-4.863,1.086
		c-1.369-0.859-1.835-2.784-1.823-4.3c0.027-3.726,0.767-7.443,1.379-12.512c2.871,5.193,5.071,9.159,7.465,13.485
		C686.397,312.5,684.292,313.881,683.912,314.146z M690.68,305.343c-0.238,0.523-0.825,2.543-1.468,2.646
		c-0.647,0.103-1.292,0.205-1.938,0.307c-1.382-3.892-2.968-7.729-4.024-11.705c-0.331-1.242,0.8-2.854,1.199-4.312
		c0.295-1.087,1.01-2.445,0.633-3.263c-1.38-2.972,0.294-4.779,2.538-5.047c2.381-0.284,4.435,2.488,5.054,4.411
		c0.852,2.647,0.815,5.446,0.567,8.186C692.958,299.67,691.964,302.522,690.68,305.343z M777.618,342.932
		c-1.495,1.356-3.599,2.252-5.575,2.822c-5.442,1.567-10.552-0.378-12.565-4.475c-2.054-4.182-0.976-8.906,3.736-12.304
		c3.358-2.423,7.309-4.163,11.201-5.673c4.478-1.735,9.182-2.881,14.846-4.604C787.536,328.542,784.5,336.692,777.618,342.932z"/>
</g>
<g>
	<path fill-rule="evenodd" clip-rule="evenodd" d="M573.131,367.255c-2.624,10.926-5.245,21.847-7.865,32.768
		c0.271,0.135,0.545,0.271,0.817,0.406c4.254-8.22,8.532-16.425,12.742-24.667c0.919-1.794,1.804-3.661,2.338-5.597
		c0.979-3.545,3.155-4.325,6.842-3.108c-0.848,2.224-1.561,4.493-2.555,6.631c-7.582,16.324-16.531,31.837-26.778,46.662
		c-3.243,4.695-5.02,10.406-7.431,15.671c-18.449,40.254-44.512,74.504-80.078,101.185c-26.903,20.186-57.027,33.147-89.952,39.875
		c-43.391,8.864-86.661,8.412-129.854-1.197c-37.105-8.254-71.404-22.889-102.085-45.516
		c-38.252-28.213-64.658-65.292-82.039-109.285c-4.343-10.986-10.273-21.348-15.486-31.989
		c-17.011-34.728-27.321-71.24-29.389-109.962c-0.026-0.52-0.144-1.035-1.094-1.697c-1.337,6.303-2.929,12.563-3.972,18.913
		c-5.936,36.161,0.089,70.716,14.452,104.056c13.298,30.869,32.669,57.68,55.433,82.188c0.734,0.792,1.754,1.475,2.119,2.41
		c0.373,0.96,0.54,2.608-0.004,3.152c-0.581,0.578-2.126,0.366-3.199,0.194c-0.559-0.09-1.023-0.829-1.507-1.302
		c-29.413-28.729-53.543-61.118-68.152-99.894c-17.384-46.144-16.992-91.869,4.046-136.959c1.223-2.622,2.019-5.606,2.276-8.49
		c3.851-43.135,16.885-83.172,40.166-119.774c22.95-36.083,53.031-64.592,90.96-84.461c43.848-22.971,90.633-31.855,139.894-27.866
		c47.335,3.834,90.881,19.173,131.475,43.468c2.002,1.197,4.503,1.758,6.851,2.138c34.178,5.538,66.18,16.596,94.559,36.961
		c24.55,17.619,43.081,40.27,56.318,67.34c9.74,19.916,15.809,41.015,20.027,62.698c0.176,0.896,0.127,1.835,0.183,2.738
		c-6.468,1.058-6.509,1.067-7.788-5.026c-7.373-35.125-21.597-66.946-45.382-94.152c-18.892-21.61-42.276-36.782-68.751-47.294
		c-10.729-4.26-21.796-7.658-33.045-10.865c54.207,41.061,93.509,92.691,115.375,157.254c-4.363,1.379-6.522,0.421-8.108-3.93
		c-23.906-65.696-66.072-116.977-123.851-155.744c-2.521-1.691-6.034-2.158-9.169-2.632c-32.716-4.955-65.401-4.208-98.072,0.606
		c-60.874,8.969-117.678,29.572-170.726,60.45c-14.308,8.33-27.474,18.607-41.347,27.711c-8.66,5.682-13.237,14.442-18.196,22.886
		c-12.5,21.286-22.251,43.812-28.739,67.644C51.95,291.21,50.985,340.84,63.908,390.39c2.078,7.967,7.392,15.237,11.876,22.414
		c22.344,35.757,50.708,65.806,86.065,88.96c50.973,33.382,106.835,46.639,167.429,40.271
		c50.049-5.263,96.778-20.515,139.901-46.469c32.156-19.352,59.983-43.668,82.307-73.975c2.484-3.375,4.12-7.619,5.237-11.712
		c3.593-13.138,6.919-26.354,9.977-39.624C567.55,366.567,569.107,365.926,573.131,367.255z M127.018,127.662
		c0.348,0.347,0.694,0.693,1.042,1.041c41.322-27.963,86.312-47.818,134.374-60.836c48.056-13.017,96.875-19.277,146.761-15.894
		c-86.81-48.263-189.93-52.014-278.437,12.516c-26.688,19.458-48.777,43.38-66.098,71.546
		c-17.076,27.769-35.216,79.158-32.326,91.094c0.424-0.636,0.814-1.168,1.153-1.73c17.902-29.881,41.164-55.02,67.983-77.043
		c5.083-4.175,10.59-8.108,14.725-13.124c21.675-26.294,46.847-48.474,75.931-66.211c18.508-11.286,38.066-20.348,58.603-27.274
		c1.045-0.353,2.381,0.158,3.582,0.267c-0.853,0.946-1.525,2.326-2.587,2.764c-6.107,2.525-12.375,4.666-18.463,7.232
		c-28.461,11.996-54.434,28.088-77.674,48.402C145.687,109.062,136.52,118.552,127.018,127.662z M546.097,438.822
		c-0.41-0.271-0.824-0.541-1.236-0.811c-0.453,0.478-0.938,0.933-1.361,1.437c-18.212,21.62-39.184,40.226-62.616,55.933
		c-51.167,34.3-107.396,53.739-169.164,56.116c-39.26,1.507-77.232-4.746-113.417-20.432C155.874,512.673,120.498,484.934,91,449.5
		c-3.57-4.286-6.988-8.704-10.475-13.06c1.691,4.738,3.842,9.192,6.179,13.542c19.988,37.225,47.439,67.618,84.071,88.88
		c57.306,33.268,119.098,47.047,185.179,39.876c30.215-3.279,58.902-11.945,85.817-26.242
		c35.546-18.881,63.512-45.901,84.971-79.709C533.718,461.799,539.673,450.165,546.097,438.822z M92.975,168.405
		c-1.385,0.819-1.78,0.968-2.066,1.233c-22.264,20.614-41.056,43.958-55.066,70.948c-2.761,5.319-5.94,11.051-6.396,16.794
		c-0.744,9.334,0.16,18.88,1.149,28.257c2.86,27.154,10.302,53.178,20.331,78.501c0.348,0.879,0.896,1.675,1.352,2.511
		C42.174,296.007,56.255,230.488,92.975,168.405z"/>
</g>
<path fill-rule="evenodd" clip-rule="evenodd" d="M163.228,276.741c7.857,9.585,13.244,19.767,13.621,31.686
	c0.183,5.774-0.683,11.851-2.439,17.354c-2.758,8.643-9.274,12.466-18.319,11.544c-4.72-0.481-9.51-1.915-13.511-4.489
	c-3.814-2.455-7.773-5.95-9.935-9.991c-0.625-1.169-1.068-2.419-1.337-3.717c-0.335-1.62-1.205-4.415,0.365-5.674
	c0.691-0.554,1.733-0.451,2.28,0.252c0.578,0.742,0.404,2.4,0.386,3.274c-0.07,3.346,2.401,5.86,4.737,7.911
	c3.041,2.671,6.171,5.365,9.876,7.076c1.835,0.848,3.957,1.507,5.979,1.703c2.63,0.257,5.853-0.189,8.046-1.736
	c1.98-1.397,3.71-3.442,4.832-5.583c0.749-1.428,1.266-2.999,1.67-4.558c4.104-15.806-0.717-29.271-10.638-41.375
	c-0.918-1.121-3.026-1.796-4.57-1.778c-5.723,0.073-11.449,0.824-17.16,0.711c-3.213-0.065-4.475,0.863-5.271,3.921
	c-5.068,19.48-10.366,38.899-15.468,58.373c-0.613,2.339-1.73,3.841-3.959,2.934c-1.096-0.449-2.387-2.71-2.138-3.825
	c4.275-19.194,8.766-38.344,13.244-57.493c0.41-1.75,1.053-3.448,1.637-5.333c0.007-0.023-3.099-1.864-3.372-2.065
	c-1.122-0.825-2.155-1.791-2.973-2.922c-1.457-2.017-1.771-4.495-0.694-6.743c1.031-2.151,3.328-4.417,5.867-4.57
	c2.016-0.123,4.115,0.25,5.877-0.99c1.532-1.078,2.429-2.923,3.006-4.652c0.386-1.155,0.643-2.356,0.871-3.551
	c1.192-6.232,2.964-12.371,4.794-18.456c1.261-4.19,3.616-4.592,6.634-1.67c4.766-5.442,9.201-11.235,14.387-16.253
	c7.083-6.854,15.417-11.635,25.572-12.62c16.486-1.598,27.032,10.083,23.626,26.392c-2.494,11.94-9.023,21.627-18.333,29.021
	c-7.757,6.161-16.514,11.063-24.833,16.516C164.983,275.759,164.338,276.095,163.228,276.741z M138.328,260.202
	c6.337,4.246,11.992,8.168,17.814,11.822c1.153,0.723,3.239,1.025,4.415,0.482c14.218-6.555,26.711-15.439,35.783-28.417
	c5.272-7.544,8.145-15.885,5.759-25.286c-1.744-6.87-6.879-11.135-13.939-11.579c-7.756-0.487-14.176,2.799-19.834,7.589
	C153.732,227.168,144.636,243.173,138.328,260.202z M136.791,265.04c-1.191,4.295-1.892,6.821-2.8,10.09c0.091-0.33,7.646,0,8.413,0
	c1.94,0,3.88-0.084,5.819-0.047c0.972,0.02,4.865,0.315,3.618-1.688c-0.777-1.246-2.623-1.945-3.875-2.571
	c-3.293-1.648-6.528-3.411-9.808-5.086C138.083,265.701,136.777,265.088,136.791,265.04z M129.812,264.818
	c-0.057,0.152-3.224,0.004-3.575,0.021c-1.655,0.081-3.737,0.563-4.759,1.986c-1.316,1.834,0.155,3.954,1.37,5.389
	c0.931,1.098,2.15,2.017,3.018,3.155C127.495,271.013,128.522,268.27,129.812,264.818z"/>
<path fill-rule="evenodd" clip-rule="evenodd" d="M663.21,272.914c-2.644,1.918-4.128,3.789-5.735,3.899
	c-1.146,0.079-3.646-2.503-3.432-3.377c0.396-1.603,2.17-3.581,3.716-3.952C658.921,269.203,660.628,271.19,663.21,272.914z"/>
</svg>
