<?xml version="1.0" encoding="utf-8"?>
<!DOCTYPE svg PUBLIC "-//W3C//DTD SVG 1.1//EN" "http://www.w3.org/Graphics/SVG/1.1/DTD/svg11.dtd">
<svg version="1.1" id="Layer_1" xmlns="http://www.w3.org/2000/svg" xmlns:xlink="http://www.w3.org/1999/xlink" x="0px" y="0px"
	 width="24px" height="24px" viewBox="0 0 24 24" enable-background="new 0 0 24 24" xml:space="preserve">
<g>
	<g>
		<g>
			<path d="M12,13.51c-6.549,0-11.68-1.778-11.68-4.049c0-1.004,1.482-2.058,2.752-2.655l0.211,0.45
				C1.855,7.928,0.818,8.854,0.818,9.461c0,1.716,4.492,3.551,11.182,3.551s11.184-1.834,11.184-3.551
				c0-1.713-4.494-3.548-11.184-3.548c-0.615,0-1.23,0.017-1.832,0.048l-0.026-0.496c0.608-0.033,1.233-0.05,1.858-0.05
				c6.549,0,11.68,1.777,11.68,4.046C23.68,11.731,18.549,13.51,12,13.51z"/>
		</g>
		<g>
			<path d="M12,21.816c-5.301,0-9.891-3.611-10.91-8.584l-0.764-3.72l0.487-0.1l0.763,3.72C2.551,17.877,6.935,21.322,12,21.322
				c5.066,0,9.451-3.445,10.426-8.189l0.764-3.72l0.486,0.1l-0.764,3.72C21.891,18.205,17.301,21.816,12,21.816z"/>
		</g>
	</g>
	<g>
		<path d="M14.982,23.68H9.516c-0.686,0-1.242-0.557-1.242-1.242v-1.33h0.497v1.33c0,0.414,0.333,0.746,0.745,0.746h5.467
			c0.41,0,0.746-0.332,0.746-0.746v-1.49h0.498v1.49C16.227,23.123,15.666,23.68,14.982,23.68z"/>
	</g>
	<g>
		<g>
			<g>
				<path d="M9.283,6.531c-0.547,0-1.814-0.632-2.782-1.163L6.357,5.29l0.015-0.163c0.003-0.029,0.007-0.056,0.007-0.084
					S6.375,4.985,6.372,4.956L6.357,4.794l0.144-0.079c0.968-0.531,2.235-1.163,2.782-1.163c0.813,0,1.475,0.668,1.475,1.49
					C10.758,5.863,10.097,6.531,9.283,6.531z M6.941,5.042c1.143,0.614,2.031,0.993,2.342,0.993c0.538,0,0.977-0.447,0.977-0.993
					c0-0.548-0.438-0.992-0.977-0.992C8.973,4.05,8.084,4.427,6.941,5.042z"/>
			</g>
			<g>
				<path d="M1.797,6.531c-0.814,0-1.477-0.668-1.477-1.488c0-0.822,0.662-1.49,1.477-1.49c0.544,0,1.812,0.632,2.781,1.163
					l0.145,0.079L4.707,4.956C4.705,4.985,4.701,5.014,4.701,5.042s0.004,0.056,0.006,0.084L4.723,5.29L4.578,5.368
					C3.609,5.899,2.341,6.531,1.797,6.531z M1.797,4.05c-0.54,0-0.979,0.444-0.979,0.992c0,0.546,0.438,0.993,0.979,0.993
					c0.309,0,1.197-0.379,2.342-0.994C2.994,4.427,2.105,4.05,1.797,4.05z"/>
			</g>
		</g>
		<g>
			<g>
				<path d="M7.487,9.765c-0.114,0-0.231-0.015-0.345-0.042C6.757,9.63,6.432,9.392,6.225,9.051c-0.303-0.507-0.42-2.1-0.462-3.004
					L5.756,5.882l0.148-0.07C5.953,5.788,6,5.759,6.045,5.724L6.178,5.62l0.146,0.086c1.385,0.819,2.2,1.423,2.422,1.794
					c0.422,0.703,0.201,1.62-0.493,2.045C8.02,9.69,7.756,9.765,7.487,9.765z M6.271,6.253c0.07,1.283,0.215,2.269,0.38,2.541
					C6.787,9.021,7.003,9.177,7.258,9.24c0.254,0.061,0.514,0.019,0.736-0.118V9.12C8.455,8.839,8.604,8.227,8.32,7.757
					C8.159,7.488,7.399,6.933,6.271,6.253z"/>
			</g>
			<g>
				<path d="M4.914,4.47L4.764,4.38C3.984,3.925,2.635,3.084,2.332,2.583c-0.424-0.7-0.202-1.617,0.493-2.043
					c0.333-0.207,0.727-0.269,1.11-0.176C4.32,0.456,4.646,0.694,4.854,1.037c0.303,0.502,0.42,2.1,0.463,3.006l0.008,0.169
					L5.17,4.281C5.125,4.302,5.084,4.326,5.049,4.358L4.914,4.47z M3.59,0.818c-0.177,0-0.35,0.048-0.504,0.144
					C2.621,1.247,2.475,1.858,2.758,2.326C2.922,2.599,3.699,3.168,4.807,3.83C4.736,2.545,4.59,1.562,4.429,1.293
					C4.291,1.067,4.074,0.907,3.819,0.845C3.742,0.827,3.666,0.818,3.59,0.818z"/>
			</g>
		</g>
		<g>
			<g>
				<path d="M3.59,9.765c-0.269,0-0.533-0.075-0.766-0.22C2.13,9.117,1.908,8.2,2.332,7.5c0.223-0.371,1.039-0.975,2.424-1.794
					L4.9,5.62l0.135,0.104C5.08,5.759,5.127,5.788,5.176,5.812l0.146,0.07L5.316,6.047C5.274,6.951,5.158,8.544,4.854,9.051
					C4.646,9.394,4.316,9.632,3.931,9.723C3.818,9.75,3.703,9.765,3.59,9.765z M4.809,6.253c-1.13,0.68-1.891,1.235-2.05,1.503
					C2.475,8.224,2.621,8.836,3.084,9.12c0.221,0.139,0.48,0.181,0.732,0.12c0.256-0.06,0.475-0.22,0.612-0.449
					C4.591,8.522,4.737,7.536,4.809,6.253z"/>
			</g>
			<g>
				<path d="M6.166,4.47L6.031,4.358C5.994,4.326,5.955,4.302,5.908,4.281L5.756,4.211l0.007-0.169
					c0.042-0.906,0.161-2.503,0.462-3.006C6.43,0.696,6.752,0.458,7.137,0.363c0.383-0.094,0.78-0.032,1.116,0.176
					c0.694,0.425,0.915,1.342,0.493,2.043l0,0c-0.302,0.502-1.65,1.342-2.43,1.798L6.166,4.47z M7.487,0.818
					c-0.077,0-0.155,0.009-0.232,0.027C7.002,0.909,6.787,1.067,6.651,1.293c-0.163,0.268-0.31,1.251-0.38,2.537
					C7.38,3.168,8.156,2.599,8.32,2.328l0,0c0.283-0.47,0.135-1.082-0.326-1.365C7.838,0.866,7.665,0.818,7.487,0.818z"/>
			</g>
		</g>
		<g>
			<path d="M5.539,6.394c-0.201,0-0.396-0.045-0.58-0.135C4.879,6.222,4.803,6.174,4.73,6.116C4.435,5.89,4.246,5.544,4.211,5.173
				C4.207,5.13,4.203,5.086,4.203,5.042c0-0.045,0.004-0.089,0.008-0.132c0.035-0.375,0.229-0.717,0.527-0.943
				c0.062-0.052,0.139-0.1,0.227-0.139c0.346-0.175,0.795-0.18,1.159,0.004C6.201,3.868,6.277,3.916,6.35,3.975
				C6.641,4.193,6.832,4.536,6.867,4.91c0.005,0.043,0.008,0.087,0.008,0.132c0,0.044-0.003,0.087-0.008,0.131
				C6.832,5.544,6.645,5.89,6.35,6.118c-0.072,0.056-0.15,0.104-0.23,0.141C5.937,6.349,5.74,6.394,5.539,6.394z M5.539,4.19
				c-0.125,0-0.248,0.028-0.359,0.086c-0.055,0.025-0.096,0.05-0.131,0.082C4.85,4.507,4.729,4.721,4.707,4.956
				C4.705,4.985,4.701,5.014,4.701,5.042s0.004,0.056,0.006,0.084C4.729,5.362,4.848,5.58,5.035,5.724
				C5.08,5.759,5.127,5.788,5.176,5.812c0.231,0.111,0.496,0.111,0.728,0C5.953,5.788,6,5.759,6.045,5.724
				C6.23,5.58,6.352,5.362,6.372,5.127c0.003-0.029,0.007-0.056,0.007-0.084S6.375,4.985,6.372,4.956
				C6.352,4.721,6.23,4.507,6.042,4.365C5.994,4.326,5.955,4.302,5.908,4.281C5.787,4.219,5.666,4.19,5.539,4.19z"/>
		</g>
	</g>
</g>
</svg>
