<?xml version="1.0" encoding="utf-8"?>
<!DOCTYPE svg PUBLIC "-//W3C//DTD SVG 1.1//EN" "http://www.w3.org/Graphics/SVG/1.1/DTD/svg11.dtd">
<svg version="1.1" id="Layer_1" xmlns="http://www.w3.org/2000/svg" xmlns:xlink="http://www.w3.org/1999/xlink" x="0px" y="0px"
	 width="24px" height="24px" viewBox="0 0 24 24" enable-background="new 0 0 24 24" xml:space="preserve">
<g>
	<g>
		<path d="M16.606,18.783l-0.316-0.395l0.219-0.174c1.447-1.166,2.338-2.914,2.441-4.803c0.192-3.477-0.093-8.169-2.536-10.771
			c-1.129-1.205-2.641-1.838-4.492-1.885C10.094,0.802,8.596,1.421,7.47,2.597C5.105,5.068,4.748,9.509,4.865,12.8
			c0.079,2.228,1.244,4.241,3.116,5.39l-0.265,0.432c-2.018-1.238-3.271-3.408-3.357-5.804C4.24,9.43,4.618,4.846,7.104,2.248
			c1.194-1.249,2.768-1.919,4.677-1.994V0.248l0.281,0.006c1.934,0.076,3.521,0.762,4.722,2.041
			c2.562,2.732,2.868,7.568,2.672,11.145c-0.111,2.031-1.071,3.914-2.631,5.168L16.606,18.783z"/>
	</g>
	<g>
		<path d="M12.025,16.738h-0.207l-0.002-0.029c-5.8-1-5.174-7.93-5.166-8l0.023-0.227h10.497l0.022,0.227
			c0.008,0.07,0.634,7-5.166,8L12.025,16.738z M7.137,8.988c-0.063,1.18-0.064,6.404,4.785,7.225c4.85-0.82,4.849-6.045,4.786-7.225
			H7.137z"/>
	</g>
	<g>
		<rect x="16.715" y="6.613" width="0.506" height="2.121"/>
	</g>
	<g>
		<rect x="6.623" y="6.613" width="0.506" height="2.121"/>
	</g>
	<g>
		<rect x="9.959" y="6.613" width="0.504" height="2.121"/>
	</g>
	<g>
		<rect x="13.291" y="6.613" width="0.507" height="2.121"/>
	</g>
	<g>
		<path d="M22.362,23.752h-0.506v-3.564c0-0.572-0.455-1.039-1.014-1.039h-3.02c-3.179,0-3.501-3.736-3.503-3.773l0.504-0.039
			c0.01,0.137,0.289,3.307,2.999,3.307h3.02c0.838,0,1.52,0.693,1.52,1.545V23.752z"/>
	</g>
	<g>
		<path d="M2.143,23.752H1.638v-3.564c0-0.852,0.682-1.545,1.521-1.545h3.019c2.71,0,2.989-3.17,3-3.307l0.504,0.039
			c-0.003,0.037-0.325,3.773-3.504,3.773H3.158c-0.56,0-1.016,0.467-1.016,1.039V23.752z"/>
	</g>
</g>
</svg>
