<?xml version="1.0" encoding="utf-8"?>
<!DOCTYPE svg PUBLIC "-//W3C//DTD SVG 1.1//EN" "http://www.w3.org/Graphics/SVG/1.1/DTD/svg11.dtd">
<svg version="1.1" id="Layer_1" xmlns="http://www.w3.org/2000/svg" xmlns:xlink="http://www.w3.org/1999/xlink" x="0px" y="0px"
	 width="24px" height="24px" viewBox="0 0 24 24" enable-background="new 0 0 24 24" xml:space="preserve">
<g>
	<g>
		<path d="M4.298,23.881c-0.984,0.001-1.571-0.135-1.624-0.147c-1.403-0.461-2.231-1.158-2.483-2.073
			c-0.281-1.02,0.27-2.1,1.341-2.622c2.688-1.316,5.479-0.344,6.279-0.011l0.927-1.718c0.751-1.242,0.384-2.613-0.054-3.548
			c-0.319-0.677-0.818-1.333-1.483-1.951c-0.4-0.371-0.828-0.831-1.27-1.364C4.54,8.764,4.435,6.481,5.666,4.764
			c2-2.784,6.062-4.553,6.235-4.626C11.933,0.124,11.966,0.117,12,0.117l0,0c0.035,0,0.067,0.007,0.1,0.021
			c0.171,0.074,4.23,1.842,6.234,4.626c1.232,1.717,1.125,4-0.264,5.683c-0.445,0.536-0.873,0.995-1.271,1.364
			c-0.666,0.617-1.164,1.272-1.482,1.951c-0.439,0.935-0.809,2.306-0.062,3.538l0.934,1.728c0.801-0.333,3.592-1.307,6.279,0.011
			c1.07,0.523,1.623,1.603,1.342,2.622c-0.254,0.915-1.082,1.612-2.463,2.069c-0.137,0.034-2.963,0.681-6.924-0.979L12,21.672
			l-2.417,1.075C7.379,23.672,5.528,23.881,4.298,23.881z M12.591,21.382l2.032,0.902c3.803,1.597,6.557,0.965,6.586,0.959
			c1.189-0.396,1.908-0.975,2.109-1.715c0.219-0.784-0.225-1.621-1.074-2.037c-2.873-1.408-5.979,0.052-6.057,0.089L12.591,21.382z
			 M4.507,18.882c-0.869,0-1.823,0.153-2.752,0.609c-0.849,0.416-1.291,1.253-1.075,2.037c0.203,0.74,0.921,1.319,2.133,1.721
			c0.006,0,2.772,0.627,6.569-0.967l2.026-0.9L7.812,19.58C7.761,19.556,6.321,18.882,4.507,18.882z M8.269,19.243L12,21.112
			l3.731-1.869l-0.916-1.692c-0.674-1.116-0.66-2.503,0.045-4.005c0.346-0.737,0.881-1.445,1.596-2.106
			c0.383-0.354,0.795-0.797,1.227-1.316c1.24-1.502,1.338-3.538,0.242-5.064c-0.953-1.326-2.436-2.43-3.691-3.208
			c1.676,1.554,3.637,3.944,2.979,6.17c-0.035,0.076-1.76,3.382-5.211,2.357c-3.448,1.025-5.175-2.281-5.192-2.315
			c-0.673-2.256,1.295-4.661,2.97-6.218C8.519,2.624,7.032,3.73,6.077,5.06C4.98,6.586,5.078,8.622,6.32,10.124
			c0.428,0.517,0.84,0.96,1.224,1.317c0.713,0.661,1.25,1.368,1.596,2.105c0.707,1.502,0.718,2.889,0.037,4.016L8.269,19.243z
			 M12.588,10.002c2.756,0.523,4.094-2.052,4.154-2.167C17.613,4.89,12.891,1.32,12,0.679C11.11,1.32,6.389,4.893,7.275,7.877
			c0.043,0.077,1.394,2.645,4.14,2.124l-0.458-0.242c-0.023-0.011-0.043-0.027-0.061-0.046l-0.784-0.807
			c-0.821-1.124-1.079-2.153-0.79-3.085C9.661,4.737,10.71,4.038,12,4.038c1.29,0,2.34,0.7,2.674,1.783
			c0.291,0.931,0.035,1.96-0.764,3.058l-0.807,0.834c-0.018,0.019-0.039,0.035-0.062,0.046L12.588,10.002z M11.231,9.333
			l0.517,0.277l0.25,0.188l0.219-0.167l0.55-0.298l0.758-0.779c0.676-0.933,0.908-1.812,0.668-2.583
			C13.865,4.917,12.807,4.543,12,4.543c-0.807,0-1.866,0.374-2.193,1.428C9.567,6.742,9.801,7.621,10.5,8.582L11.231,9.333z"/>
	</g>
</g>
</svg>
